<?xml version="1.0" encoding="utf-8"?>
<!-- Generator: Adobe Illustrator 25.2.0, SVG Export Plug-In . SVG Version: 6.00 Build 0)  -->
<svg version="1.1" id="レイヤー_1" xmlns="http://www.w3.org/2000/svg" xmlns:xlink="http://www.w3.org/1999/xlink" x="0px"
	 y="0px" viewBox="0 0 60.7 60.7" style="enable-background:new 0 0 60.7 60.7;" xml:space="preserve">
<g id="グループ_1" transform="translate(165 1)">
	<g id="パス_5">
		<polygon points="-120.01,40.01 -145.77,40.01 -156.18,18.32 -130.77,18.32 -130.77,21.64 -150.91,21.64 -143.68,36.69 
			-123.33,36.69 -123.33,7.07 -113.16,6.94 -113.12,10.26 -120.01,10.34 		"/>
	</g>
	<g id="楕円形_1">
		<path d="M-124.9,51.76c-2.94,0-5.33-2.39-5.33-5.33c0-2.94,2.39-5.33,5.33-5.33c2.94,0,5.33,2.39,5.33,5.33
			C-119.56,49.37-121.96,51.76-124.9,51.76z M-124.9,44.41c-1.11,0-2.01,0.9-2.01,2.01c0,1.11,0.9,2.01,2.01,2.01
			c1.11,0,2.01-0.9,2.01-2.01C-122.88,45.32-123.79,44.41-124.9,44.41z"/>
	</g>
	<g id="楕円形_2">
		<path d="M-139.59,51.76c-2.94,0-5.33-2.39-5.33-5.33c0-2.94,2.39-5.33,5.33-5.33c2.94,0,5.33,2.39,5.33,5.33
			C-134.26,49.37-136.65,51.76-139.59,51.76z M-139.59,44.41c-1.11,0-2.01,0.9-2.01,2.01c0,1.11,0.9,2.01,2.01,2.01
			c1.11,0,2.01-0.9,2.01-2.01C-137.58,45.32-138.48,44.41-139.59,44.41z"/>
	</g>
</g>
</svg>
